<svg width="90" height="80" viewBox="0 0 90 80" fill="none" xmlns="http://www.w3.org/2000/svg">
<path d="M52.2865 30.2568C52.2865 26.3094 49.7883 24.1304 45.4004 24.1304H37.3292V36.8475H44.1352C49.3879 36.8297 52.2865 34.472 52.2865 30.2568ZM81.6726 27.9705C80.1512 22.4514 79.927 15.6821 80.1032 10.4488C80.2794 5.00112 76.468 0 71.3434 0H18.6886C13.548 0 9.75267 5.01898 9.92883 10.4488C10.089 15.6821 9.88078 22.4514 8.35943 27.9705C6.82206 33.5075 4.24377 37.0083 0 37.4548V42.5452C4.22776 42.9917 6.82206 46.4925 8.35943 52.0295C9.88078 57.5486 10.105 64.3179 9.92883 69.5512C9.75267 74.9989 13.5641 80 18.6886 80H71.3274C76.468 80 80.2633 74.981 80.0872 69.5512C79.927 64.3179 80.1352 57.5486 81.6566 52.0295C83.194 46.4925 85.7722 42.9917 90 42.5452V37.4548C85.7883 37.0083 83.1939 33.5075 81.6726 27.9705ZM46.9537 61.2815H31.2758V18.7185H46.8737C53.8078 18.7185 58.3559 22.898 58.3559 29.328C58.3559 33.8468 55.2971 37.8835 51.3897 38.58V38.8122C56.7064 39.4552 60.2776 43.5633 60.2776 49.2253C60.2776 56.7448 55.2651 61.2815 46.9537 61.2815ZM45.3523 41.8665H37.3292V55.8696H45.7046C51.1815 55.8696 54.0801 53.4226 54.0801 48.8145C54.0801 44.2242 51.1014 41.8665 45.3523 41.8665Z" fill="#517EE2"/>
</svg>
