<svg width="27" height="24" viewBox="0 0 27 24" fill="none" xmlns="http://www.w3.org/2000/svg">
<path d="M3.375 3C2.91094 3 2.53125 3.45 2.53125 4V5.38125L11.6279 14.2313C12.7195 15.2938 14.2857 15.2938 15.3773 14.2313L24.4688 5.38125V4C24.4688 3.45 24.0891 3 23.625 3H3.375ZM2.53125 9.2625V20C2.53125 20.55 2.91094 21 3.375 21H23.625C24.0891 21 24.4688 20.55 24.4688 20V9.2625L16.9805 16.55C14.9555 18.5187 12.0393 18.5187 10.0195 16.55L2.53125 9.2625ZM0 4C0 1.79375 1.51348 0 3.375 0H23.625C25.4865 0 27 1.79375 27 4V20C27 22.2062 25.4865 24 23.625 24H3.375C1.51348 24 0 22.2062 0 20V4Z" fill="#517EE2"/>
</svg>
