<svg width="61" height="66" viewBox="0 0 61 66" fill="none" xmlns="http://www.w3.org/2000/svg">
<path d="M20.2228 52.6199C20.2228 52.8858 19.9441 53.0985 19.5926 53.0985C19.1926 53.1383 18.9138 52.9256 18.9138 52.6199C18.9138 52.354 19.1926 52.1414 19.5441 52.1414C19.9077 52.1015 20.2228 52.3142 20.2228 52.6199ZM16.4535 52.0217C16.3686 52.2876 16.611 52.5933 16.9746 52.6731C17.2898 52.806 17.6534 52.6731 17.7261 52.4072C17.7988 52.1414 17.5685 51.8356 17.2049 51.716C16.8898 51.6229 16.5383 51.7559 16.4535 52.0217ZM21.8105 51.7957C21.4591 51.8888 21.2167 52.1414 21.253 52.4471C21.2894 52.713 21.6045 52.8858 21.9681 52.7927C22.3196 52.6997 22.562 52.4471 22.5256 52.1812C22.4893 51.9287 22.162 51.7559 21.8105 51.7957ZM29.7856 0.857147C12.975 0.857147 0.115601 14.8546 0.115601 33.292C0.115601 48.0338 8.57542 60.6489 20.6591 65.0887C22.2105 65.3944 22.7559 64.3443 22.7559 63.4803C22.7559 62.6561 22.7196 58.1099 22.7196 55.3184C22.7196 55.3184 14.2355 57.3123 12.4538 51.3571C12.4538 51.3571 11.0722 47.4888 9.08446 46.4919C9.08446 46.4919 6.30896 44.4049 9.27838 44.4447C9.27838 44.4447 12.2963 44.7106 13.9567 47.8743C16.611 53.0054 21.0591 51.5299 22.7923 50.6525C23.071 48.5257 23.8588 47.0502 24.7315 46.1728C17.9564 45.3487 11.1206 44.2719 11.1206 31.4841C11.1206 27.8285 12.0418 25.9941 13.981 23.6546C13.6659 22.7905 12.6356 19.228 14.2961 14.6286C16.8292 13.7646 22.659 18.2177 22.659 18.2177C25.083 17.4733 27.6888 17.0878 30.2704 17.0878C32.8519 17.0878 35.4578 17.4733 37.8818 18.2177C37.8818 18.2177 43.7115 13.7513 46.2446 14.6286C47.9051 19.2413 46.8749 22.7905 46.5598 23.6546C48.499 26.0074 49.6867 27.8418 49.6867 31.4841C49.6867 44.3118 42.548 45.3354 35.7729 46.1728C36.8879 47.223 37.8333 49.2169 37.8333 52.3408C37.8333 56.8205 37.7969 62.3636 37.7969 63.4537C37.7969 64.3177 38.3545 65.3679 39.8937 65.0621C52.0138 60.6488 60.2312 48.0338 60.2312 33.292C60.2312 14.8546 46.5961 0.857147 29.7856 0.857147ZM11.8963 46.7045C11.7388 46.8375 11.7751 47.1432 11.9812 47.3958C12.1751 47.6085 12.4538 47.7015 12.6114 47.5287C12.769 47.3958 12.7326 47.09 12.5266 46.8375C12.3326 46.6248 12.0539 46.5317 11.8963 46.7045ZM10.5874 45.6278C10.5025 45.8006 10.6237 46.0133 10.8661 46.1462C11.06 46.2792 11.3024 46.2393 11.3873 46.0532C11.4721 45.8804 11.3509 45.6677 11.1085 45.5348C10.8661 45.455 10.6722 45.4949 10.5874 45.6278ZM14.5143 50.3601C14.3203 50.5329 14.3931 50.9317 14.6718 51.1843C14.9506 51.49 15.3021 51.5299 15.4596 51.3172C15.6172 51.1444 15.5445 50.7456 15.3021 50.493C15.0354 50.1873 14.6718 50.1474 14.5143 50.3601ZM13.1326 48.406C12.9386 48.539 12.9386 48.8846 13.1326 49.1903C13.3265 49.4961 13.6537 49.629 13.8113 49.4961C14.0052 49.3233 14.0052 48.9776 13.8113 48.6719C13.6416 48.3662 13.3265 48.2332 13.1326 48.406Z" fill="#517EE2"/>
</svg>
