<svg width="61" height="66" viewBox="0 0 61 66" fill="none" xmlns="http://www.w3.org/2000/svg">
<path d="M55.8216 0.857147H4.28055C1.91887 0.857147 0 2.93782 0 5.49203V60.508C0 63.0622 1.91887 65.1429 4.28055 65.1429H55.8216C58.1833 65.1429 60.1156 63.0622 60.1156 60.508V5.49203C60.1156 2.93782 58.1833 0.857147 55.8216 0.857147ZM18.1689 55.9592H9.25888V25.28H18.1823V55.9592H18.1689ZM13.7139 21.0899C10.8557 21.0899 8.54769 18.6075 8.54769 15.5654C8.54769 12.5233 10.8557 10.0408 13.7139 10.0408C16.5586 10.0408 18.8801 12.5233 18.8801 15.5654C18.8801 18.6218 16.572 21.0899 13.7139 21.0899ZM51.5679 55.9592H42.6579V41.0357C42.6579 37.477 42.5908 32.8996 38.0285 32.8996C33.3856 32.8996 32.6744 36.7739 32.6744 40.7774V55.9592H23.7645V25.28H32.3121V29.47H32.4329C33.6272 27.0593 36.539 24.5195 40.8732 24.5195C49.8906 24.5195 51.5679 30.8763 51.5679 39.1416V55.9592Z" fill="#517EE2"/>
</svg>
