<svg width="29" height="26" viewBox="0 0 29 26" fill="none" xmlns="http://www.w3.org/2000/svg">
<path d="M27.9992 18.9686V22.5816C28.0007 22.917 27.9233 23.249 27.7718 23.5563C27.6203 23.8636 27.3981 24.1395 27.1196 24.3662C26.841 24.5929 26.512 24.7656 26.1539 24.873C25.7958 24.9805 25.4163 25.0204 25.0397 24.9902C20.8623 24.5875 16.8495 23.3212 13.324 21.293C10.0439 19.4439 7.26301 16.9769 5.17871 14.067C2.88441 10.9252 1.45663 7.3481 1.01102 3.62554C0.977094 3.29251 1.02171 2.95685 1.14203 2.63995C1.26233 2.32305 1.45571 2.03185 1.70984 1.78488C1.96397 1.53792 2.27328 1.34059 2.61808 1.20549C2.96287 1.07037 3.33561 1.00043 3.71255 1.00012H7.78521C8.44408 0.994363 9.08278 1.20133 9.58229 1.58245C10.0818 1.96356 10.4081 2.49281 10.5003 3.07156C10.6722 4.22779 10.991 5.36305 11.4506 6.4557C11.6333 6.88676 11.6728 7.35523 11.5646 7.80556C11.4562 8.25601 11.2047 8.66933 10.8397 8.99685L9.11556 10.5263C11.0481 13.5414 13.8622 16.0378 17.2609 17.7522L18.985 16.2228C19.3541 15.899 19.8201 15.6758 20.3278 15.5798C20.8355 15.4838 21.3636 15.5188 21.8494 15.6808C23.0811 16.0886 24.3609 16.3714 25.6642 16.5238C26.3237 16.6064 26.9259 16.901 27.3564 17.3518C27.787 17.8026 28.0157 18.378 27.9992 18.9686Z" stroke="#517EE2" stroke-width="2" stroke-linecap="round" stroke-linejoin="round"/>
</svg>
